HIERARCHY
ROOT hips
{
  OFFSET 0 10.6860622 2.3727825e-15
  CHANNELS 6 Xposition Yposition Zposition Yrotation Xrotation Zrotation
  JOINT leftUpperLeg
  {
    OFFSET 0.6642549969 -0.9402397400000004 0
    CHANNELS 3 Yrotation Xrotation Zrotation
    JOINT leftLowerLeg
    {
      OFFSET 0 -3.997221335632195 0
      CHANNELS 3 Yrotation Xrotation Zrotation
      JOINT leftFoot
      {
        OFFSET -0.13777839790000004 -4.6145792000000005 -0.22186036399999998
        CHANNELS 3 Yrotation Xrotation Zrotation
        JOINT leftToes
        {
          OFFSET -0.03777410834999995 -0.9130806927000008 0.85230013
          CHANNELS 3 Yrotation Xrotation Zrotation
          End Site
          {
            OFFSET -0.03777410834999995 -0.9130806927000008 0.85230013
          }
        }
      }
    }
  }
  JOINT rightUpperLeg
  {
    OFFSET -0.6642778626 -0.9402397400000004 0
    CHANNELS 3 Yrotation Xrotation Zrotation
    JOINT rightLowerLeg
    {
      OFFSET 0 -3.997221452859387 0
      CHANNELS 3 Yrotation Xrotation Zrotation
      JOINT rightFoot
      {
        OFFSET 0.1377926176 -4.6145792000000005 -0.22185782299999995
        CHANNELS 3 Yrotation Xrotation Zrotation
        JOINT rightToes
        {
          OFFSET 0.037780746850000047 -0.9130806927000008 0.85230167
          CHANNELS 3 Yrotation Xrotation Zrotation
          End Site
          {
            OFFSET 0.037780746850000047 -0.9130806927000008 0.85230167
          }
        }
      }
    }
  }
  JOINT spine
  {
    OFFSET 0 0.13988381660000015 0
    CHANNELS 3 Yrotation Xrotation Zrotation
    JOINT chest
    {
      OFFSET 0 0.6191039003973773 0
      CHANNELS 3 Yrotation Xrotation Zrotation
      JOINT upperChest
      {
        OFFSET 0 0.9855186130586943 0
        CHANNELS 3 Yrotation Xrotation Zrotation
        JOINT leftShoulder
        {
          OFFSET 0.1807663869 1.5087829790000005 0
          CHANNELS 3 Yrotation Xrotation Zrotation
          JOINT leftUpperArm
          {
            OFFSET 0.5985063006419806 0 0
            CHANNELS 3 Yrotation Xrotation Zrotation
            JOINT leftLowerArm
            {
              OFFSET 2.2993332369501065 0 0
              CHANNELS 3 Yrotation Xrotation Zrotation
              JOINT leftHand
              {
                OFFSET 2.395047042602395 0 0
                CHANNELS 3 Yrotation Xrotation Zrotation
                JOINT leftIndexProximal
                {
                  OFFSET 0.5766295810000004 0.04556643899499946 0.17265095988184
                  CHANNELS 3 Yrotation Xrotation Zrotation
                  JOINT leftIndexIntermediate
                  {
                    OFFSET 0.2957229000000008 -0.019352197700001517 -0.007932640616999987
                    CHANNELS 3 Yrotation Xrotation Zrotation
                    JOINT leftIndexDistal
                    {
                      OFFSET 0.19008243099999922 -0.012484908149998475 -0.002786250786000012
                      CHANNELS 3 Yrotation Xrotation Zrotation
                      End Site
                      {
                        OFFSET 0.19008243099999922 -0.012484908149998475 -0.002786250786000012
                      }
                    }
                  }
                }
                JOINT leftMiddleProximal
                {
                  OFFSET 0.5834975091000001 0.0524350405149987 0.02204081888183999
                  CHANNELS 3 Yrotation Xrotation Zrotation
                  JOINT leftMiddleIntermediate
                  {
                    OFFSET 0.33880573540000003 -0.019871473270000717 -0.00000971183179999946
                    CHANNELS 3 Yrotation Xrotation Zrotation
                    JOINT leftMiddleDistal
                    {
                      OFFSET 0.20676022730000088 -0.012221336379999448 0.0001471936708000235
                      CHANNELS 3 Yrotation Xrotation Zrotation
                      End Site
                      {
                        OFFSET 0.20676022730000088 -0.012221336379999448 0.0001471936708000235
                      }
                    }
                  }
                }
                JOINT leftLittleProximal
                {
                  OFFSET 0.5344154683999995 -0.012880921405001189 -0.24414037221816004
                  CHANNELS 3 Yrotation Xrotation Zrotation
                  JOINT leftLittleIntermediate
                  {
                    OFFSET 0.21758961730000093 -0.011650919939999227 0.011893592810000034
                    CHANNELS 3 Yrotation Xrotation Zrotation
                    JOINT leftLittleDistal
                    {
                      OFFSET 0.1475273964999999 -0.008152365682999818 0.006001092492999946
                      CHANNELS 3 Yrotation Xrotation Zrotation
                      End Site
                      {
                        OFFSET 0.1475273964999999 -0.008152365682999818 0.006001092492999946
                      }
                    }
                  }
                }
                JOINT leftRingProximal
                {
                  OFFSET 0.5799399463000003 0.026911854694997794 -0.12150566991816003
                  CHANNELS 3 Yrotation Xrotation Zrotation
                  JOINT leftRingIntermediate
                  {
                    OFFSET 0.26167887460000006 -0.013480186499999602 0.010996293000000053
                    CHANNELS 3 Yrotation Xrotation Zrotation
                    JOINT leftRingDistal
                    {
                      OFFSET 0.17667108799999987 -0.008990287899999228 0.0055541023999999065
                      CHANNELS 3 Yrotation Xrotation Zrotation
                      End Site
                      {
                        OFFSET 0.17667108799999987 -0.008990287899999228 0.0055541023999999065
                      }
                    }
                  }
                }
                JOINT leftThumbProximal
                {
                  OFFSET 0.11018806699999972 -0.09448718900500053 0.17047963138184
                  CHANNELS 3 Yrotation Xrotation Zrotation
                  JOINT leftThumbIntermediate
                  {
                    OFFSET 0.31062601459999983 -0.08126270900000132 0.15443142000000007
                    CHANNELS 3 Yrotation Xrotation Zrotation
                    JOINT leftThumbDistal
                    {
                      OFFSET 0.21627175790000086 -0.08833193599999878 0.018771167799999988
                      CHANNELS 3 Yrotation Xrotation Zrotation
                      End Site
                      {
                        OFFSET 0.21627175790000086 -0.08833193599999878 0.018771167799999988
                      }
                    }
                  }
                }
              }
            }
          }
        }
        JOINT neck
        {
          OFFSET 0 1.5463305265074576 0
          CHANNELS 3 Yrotation Xrotation Zrotation
          JOINT head
          {
            OFFSET 0 0.8456443600000344 0
            CHANNELS 3 Yrotation Xrotation Zrotation
            JOINT leftEye
            {
              OFFSET 0.30408573140000006 0.5104519199999995 0.1276382305
              CHANNELS 3 Yrotation Xrotation Zrotation
              End Site
              {
                OFFSET 0.30408573140000006 0.5104519199999995 0.1276382305
              }
            }
            JOINT rightEye
            {
              OFFSET -0.30409491089999996 0.5104519199999995 0.1276379445
              CHANNELS 3 Yrotation Xrotation Zrotation
              End Site
              {
                OFFSET -0.30409491089999996 0.5104519199999995 0.1276379445
              }
            }
            JOINT jaw
            {
              OFFSET -3.155239131000001e-7 -0.11984121820000082 0.60178107
              CHANNELS 3 Yrotation Xrotation Zrotation
              End Site
              {
                OFFSET -3.155239131000001e-7 -0.11984121820000082 0.60178107
              }
            }
          }
        }
        JOINT rightShoulder
        {
          OFFSET -0.1807303465 1.5087829790000005 0
          CHANNELS 3 Yrotation Xrotation Zrotation
          JOINT rightUpperArm
          {
            OFFSET -0.5985063796536958 0 0
            CHANNELS 3 Yrotation Xrotation Zrotation
            JOINT rightLowerArm
            {
              OFFSET -2.2993322059002854 0 0
              CHANNELS 3 Yrotation Xrotation Zrotation
              JOINT rightHand
              {
                OFFSET -2.395045314457259 0 0
                CHANNELS 3 Yrotation Xrotation Zrotation
                JOINT rightIndexProximal
                {
                  OFFSET -0.5764487688300002 0.0441371204405987 0.17361932004999997
                  CHANNELS 3 Yrotation Xrotation Zrotation
                  JOINT rightIndexIntermediate
                  {
                    OFFSET -0.29573011380000047 -0.01934826376999843 -0.007698921482999974
                    CHANNELS 3 Yrotation Xrotation Zrotation
                    JOINT rightIndexDistal
                    {
                      OFFSET -0.19008373999999884 -0.012503266380000655 -0.0026365778999999897
                      CHANNELS 3 Yrotation Xrotation Zrotation
                      End Site
                      {
                        OFFSET -0.19008373999999884 -0.012503266380000655 -0.0026365778999999897
                      }
                    }
                  }
                }
                JOINT rightMiddleProximal
                {
                  OFFSET -0.5834852037300005 0.05211639405060153 0.02307162440000001
                  CHANNELS 3 Yrotation Xrotation Zrotation
                  JOINT rightMiddleIntermediate
                  {
                    OFFSET -0.33880114510000003 -0.019952774050000954 0.0002455003561999819
                    CHANNELS 3 Yrotation Xrotation Zrotation
                    JOINT rightMiddleDistal
                    {
                      OFFSET -0.20675694929999955 -0.012273788999999091 0.00030209124000002766
                      CHANNELS 3 Yrotation Xrotation Zrotation
                      End Site
                      {
                        OFFSET -0.20675694929999955 -0.012273788999999091 0.00030209124000002766
                      }
                    }
                  }
                }
                JOINT rightLittleProximal
                {
                  OFFSET -0.5346811737299992 -0.011214256288399227 -0.24363941305000003
                  CHANNELS 3 Yrotation Xrotation Zrotation
                  JOINT rightLittleIntermediate
                  {
                    OFFSET -0.21757715980000092 -0.011771559690000988 0.01201554387
                    CHANNELS 3 Yrotation Xrotation Zrotation
                    JOINT rightLittleDistal
                    {
                      OFFSET -0.1475201849000004 -0.00822055339600003 0.006082065407000015
                      CHANNELS 3 Yrotation Xrotation Zrotation
                      End Site
                      {
                        OFFSET -0.1475201849000004 -0.00822055339600003 0.006082065407000015
                      }
                    }
                  }
                }
                JOINT rightRingProximal
                {
                  OFFSET -0.5800810755299999 0.027657985680600072 -0.12066365025000003
                  CHANNELS 3 Yrotation Xrotation Zrotation
                  JOINT rightRingIntermediate
                  {
                    OFFSET -0.26166445029999974 -0.013623118409999302 0.011164098990000045
                    CHANNELS 3 Yrotation Xrotation Zrotation
                    JOINT rightRingDistal
                    {
                      OFFSET -0.17666387530000027 -0.009072900100000503 0.005668185599999959
                      CHANNELS 3 Yrotation Xrotation Zrotation
                      End Site
                      {
                        OFFSET -0.17666387530000027 -0.009072900100000503 0.005668185599999959
                      }
                    }
                  }
                }
                JOINT rightThumbProximal
                {
                  OFFSET -0.10997596379000074 -0.09577489355940072 0.16989765924999997
                  CHANNELS 3 Yrotation Xrotation Zrotation
                  JOINT rightThumbIntermediate
                  {
                    OFFSET -0.31036620999999986 -0.08229339117999834 0.15440884469999996
                    CHANNELS 3 Yrotation Xrotation Zrotation
                    JOINT rightThumbDistal
                    {
                      OFFSET -0.21631306399999906 -0.08825326400000111 0.018656797720000014
                      CHANNELS 3 Yrotation Xrotation Zrotation
                      End Site
                      {
                        OFFSET -0.21631306399999906 -0.08825326400000111 0.018656797720000014
                      }
                    }
                  }
                }
              }
            }
          }
        }
      }
    }
  }
}
MOTION
Frames: 7
Frame Time: 0.03333333333333333
0 11.682712981546562 0 0 0 0 0 0 -5.826343164929014 -0.3712483961610101 -3.6333298826370974 5.838118207697276 0 0 0 0 0 0 0 0 5.826343164929014 0.3712483961610101 -3.6333298826370974 -5.838118207697276 0 0 0 0 0 0 0 -4.610651315171937 0 0 3.0831277533083026 0 0 0 0 0 1.5275236235667615 0 0 0 0 0 0 0 0 0 0 0 0 0 0 0 0 0 0 0 0 0 0 0 0 0 0 0 0 0 0 0 0 0 0 0 0 0 0 0 0 0 0 0 0 0 0 0 0 0 0 0 0 0 0 0 0 1.5275236235667615 0 0 0 0 0 0 0 0 0 0 0 0 0 0 1.5275236235667615 0 0 0 0 0 0 0 0 0 0 0 0 0 0 0 0 0 0 0 0 0 0 0 0 0 0 0 0 0 0 0 0 0 0 0 0 0 0 0 0 0 0 0 0 0 0 0 0 0 0 0 0 0 0 0
-0.07551270231650731 4.650551961624762 0.49096470351887056 28.017602422717136 -17.04629035330769 -28.018816807602814 3.251283840499932 -12.931960555850006 -4.152131960076668 -0.13854752628981803 12.510189369509934 5.472719086572623 -1.1952272215966309 13.539728917656733 -0.9931178653959518 0 0 0 -1.8551988587598733 -11.857435765283629 -1.1158305392554513 -19.22694977717073 24.542122951807197 3.7167684175681615 2.76389063803197 7.754432544044133 3.1399349392800553 0 0 0 0.3375817795112624 -7.508797088432849 0.6217464342723691 -0.01939221055748703 6.481794760007118 1.5534270597693172 0 0 0 1.159121969500541 -1.307908689308132 -2.6852142708019398 -19.75771088689806 -12.608723100478903 -9.768669562625927 -5.5607536368736215 -2.760251625248596 -25.396691346709744 -3.2833079070472024 0.3583094436317991 -10.665190568786617 0 0 0 0 0 0 0 0 0 0 0 0 0 0 0 0 0 0 0 0 0 0 0 0 0 0 0 0 0 0 0 0 0 0 0 0 0 0 0 0 0 0 0 0 0 0.5313046732876333 -8.46831492698249 2.905335257153785 -0.6455170338660277 4.984790046108696 7.26735935921431 0 0 0 0 0 0 0 0 0 -4.448394889019554 -3.455551464634182 -4.271572498111212 16.687581995215503 -8.179663420337619 17.17089377177427 20.612548229088954 -14.239513516576904 14.256899984053538 2.070794326545174 -5.306191866714323 14.732881572039691 0 0 0 0 0 0 0 0 0 0 0 0 0 0 0 0 0 0 0 0 0 0 0 0 0 0 0 0 0 0 0 0 0 0 0 0 0 0 0 0 0 0 0 0 0
-0.15102540463301461 -2.3816090582970375 0.9819294070377411 61.98487528611055 -17.045565234709382 -61.98715874567417 6.356542621377974 -25.935881758988454 -3.149436135722862 0.0045533597426162765 28.654813639043635 5.139942933904443 -2.7609478306002266 27.05208449818174 -2.3912730543087624 0 0 0 -2.269607351885097 -23.85061856562002 -8.122922818532798 -41.63575943060543 54.18707696085188 2.1635469930735045 6.039095560037347 15.333566856905998 6.749557894630835 0 0 0 -0.3504394099860829 -10.318216026420133 -0.03931688645878277 0.05452357980127137 9.879729341156182 3.118994240485096 0 0 0 2.452754622298754 -4.085228959873259 -5.433532168078949 -38.74739860200107 -27.713341121933357 -15.085881947566353 -9.424162148513304 -7.6308447431758495 -50.5771590901973 -6.576198747774132 0.10253842973215832 -21.333357734251553 0 0 0 0 0 0 0 0 0 0 0 0 0 0 0 0 0 0 0 0 0 0 0 0 0 0 0 0 0 0 0 0 0 0 0 0 0 0 0 0 0 0 0 0 0 0.5531827216499935 -18.47815383773903 5.837838138539712 -0.6537602094704628 10.011091063069353 14.561739323784606 0 0 0 0 0 0 0 0 0 -8.552732931701119 -8.74308976105551 -8.181350517495762 30.887507160584356 -20.64092991044274 31.971456600934022 39.270493211498724 -32.39030979488844 23.58207260627927 2.729011468328634 -10.963698792153627 29.468475656795178 0 0 0 0 0 0 0 0 0 0 0 0 0 0 0 0 0 0 0 0 0 0 0 0 0 0 0 0 0 0 0 0 0 0 0 0 0 0 0 0 0 0 0 0 0
-0.22653810694952192 -9.413770078218839 1.4728941105566118 90.00174883921227 0.0017551601812960968 -90.0052489999456 9.65735758804589 -38.97211361363425 -2.88980989120992 0.0511165712194632 44.799945414261295 4.784478898345022 -5.024741909610855 40.514044442748414 -4.51013334256825 0 0 0 -0.9425899094218301 -35.79529995704949 -15.921347752784063 -114.26610707452734 75.62874366960388 -52.81109439985455 9.973239661415992 22.676163928654205 10.986371254224707 0 0 0 -1.1459254197767754 -12.169579433898868 -2.0996464468481335 0.2246418983804446 13.274364317882734 4.708194267045261 0 0 0 3.884851201144757 -6.796481357794662 -8.256802530649828 -59.935769293205134 -43.60769185953519 -14.493255539762814 -10.855121546161374 -13.675792793764412 -75.84300947930389 -9.765074140712976 -0.7576663649737101 -31.970043191748434 0 0 0 0 0 0 0 0 0 0 0 0 0 0 0 0 0 0 0 0 0 0 0 0 0 0 0 0 0 0 0 0 0 0 0 0 0 0 0 0 0 0 0 0 0 -0.0028675023578962904 -28.4750641192617 8.99782095916773 -0.002249970406014626 14.997021219355776 21.99839023354447 0 0 0 0 0 0 0 0 0 -12.356181086746851 -14.285993002168599 -11.767484651213634 42.714652446993256 -36.01634171520962 44.66525849824323 59.805214721157775 -52.337263881598695 26.31167000517848 1.8818269407214532 -16.59887764695803 44.499389017842866 0 0 0 0 0 0 0 0 0 0 0 0 0 0 0 0 0 0 0 0 0 0 0 0 0 0 0 0 0 0 0 0 0 0 0 0 0 0 0 0 0 0 0 0 0
-0.2499940705721356 -9.413770078218839 1.4624521303132678 89.57453017522697 0.0016909212182565508 -90.00521104995747 9.690840348674525 -39.319960515414095 -2.9717699974242393 0.00761835472469786 44.36781161488024 4.720788572693133 -5.009134717670524 40.875429839436876 -4.51226535940178 0 0 0 -1.1513168761837391 -36.26955560502266 -15.75008394079685 -113.52707888414704 75.47462358263479 -52.02756762891626 9.916810493987432 22.905015815172977 10.76951050201513 0 0 0 -1.1452081127406382 -11.88601061169933 -2.1083867883152325 0.21331527445919643 12.338496675486589 4.674531731268983 0 0 0 3.785670702672752 -6.398647380965182 -8.289216770534571 -59.791564404325975 -43.55558333520281 -14.57588625421621 -10.829401847589827 -13.580192757818404 -75.59969305306637 -9.765074140712976 -0.7576663649737101 -31.970043191748434 0 0 0 0 0 0 0 0 0 0 0 0 0 0 0 0 0 0 0 0 0 0 0 0 0 0 0 0 0 0 0 0 0 0 0 0 0 0 0 0 0 0 0 0 0 0.012875778925926298 -28.350812109138275 8.28434346890211 0.018093919281994622 15.044699448149043 22.241821530696125 0 0 0 0 0 0 0 0 0 -12.584737100441313 -14.000735087050735 -11.794454366376609 42.75246840794518 -36.02518764557509 44.76817450805198 59.78817914396001 -52.331250268037586 26.404527014223728 1.9316522312722557 -16.5146401898651 44.53964207268939 0 0 0 0 0 0 0 0 0 0 0 0 0 0 0 0 0 0 0 0 0 0 0 0 0 0 0 0 0 0 0 0 0 0 0 0 0 0 0 0 0 0 0 0 0
-0.2734500341947493 -9.413770078218839 1.452010150069924 89.1473115015058 0.0016269668811748012 -90.00517262222294 9.72513809727452 -39.66777117682997 -3.0544052653385743 -0.03489542857924551 43.935636758837774 4.658018396663736 -4.993459172228786 41.23681880566892 -4.51427869755332 0 0 0 -1.363093834491014 -36.74329560700117 -15.575613925974425 -112.8040845644531 75.31803093898974 -51.26006173232062 9.859343806581267 23.13366966566315 10.55203777763464 0 0 0 -1.1445590175492328 -11.602441412142193 -2.1171059349354637 0.20258835690597268 11.402621962390684 4.641173716219624 0 0 0 3.6863389095196695 -6.000869701264829 -8.322298291570336 -59.647592310497544 -43.50333149925625 -14.658263441014885 -10.80327621834895 -13.484699720292518 -75.35642938570706 -9.765074140712976 -0.7576663649737101 -31.970043191748434 0 0 0 0 0 0 0 0 0 0 0 0 0 0 0 0 0 0 0 0 0 0 0 0 0 0 0 0 0 0 0 0 0 0 0 0 0 0 0 0 0 0 0 0 0 0.026843445368686433 -28.22639911870421 7.571736906526384 0.03865198624835849 15.092294610312747 22.48532506830189 0 0 0 0 0 0 0 0 0 -12.813151231836017 -13.715584780822097 -11.822562243265773 42.79026930546235 -36.03408946970995 44.87109189093769 59.771159056194996 -52.32521512105165 26.497368360954574 1.9815177279448384 -16.430434095850135 44.57995946505516 0 0 0 0 0 0 0 0 0 0 0 0 0 0 0 0 0 0 0 0 0 0 0 0 0 0 0 0 0 0 0 0 0 0 0 0 0 0 0 0 0 0 0 0 0
-0.296905997817363 -9.413770078218839 1.44156816982658 88.72009282345061 0.0015633008177652944 -90.00513371882646 9.760265025282283 -40.01554458680471 -3.1377322160773984 -0.07645087820165715 43.50343508203272 4.5961415834699455 -4.9777135568258695 41.59820763121803 -4.516170683944971 0 0 0 -1.5780033156384727 -37.216517367122954 -15.397855596545078 -112.096861479212 75.15902784507738 -50.508309322765584 9.8008335848532 23.362120680964942 10.333941468975011 0 0 0 -1.1439779763158024 -11.31887186664147 -2.1258048481001137 0.1924493159527659 10.466741817981312 4.608098925103245 0 0 0 3.586846180033888 -5.60314962876314 -8.356049180853764 -59.50384985764808 -43.45092256760179 -14.740387521382164 -10.776742709692554 -13.389315042659153 -75.11321767643479 -9.765074140712976 -0.7576663649737101 -31.970043191748434 0 0 0 0 0 0 0 0 0 0 0 0 0 0 0 0 0 0 0 0 0 0 0 0 0 0 0 0 0 0 0 0 0 0 0 0 0 0 0 0 0 0 0 0 0 0.03903965990761404 -28.101840611756646 6.8599928362799165 0.059424029913782116 15.13980491400445 22.728900599360944 0 0 0 0 0 0 0 0 0 -13.041435463363124 -13.430544293427117 -11.851805085793524 42.82805236456635 -36.043042983185195 44.97402014803216 59.75415969360406 -52.31916403633864 26.59019420542396 2.0314232195532034 -16.3462627012424 44.62033388000251 0 0 0 0 0 0 0 0 0 0 0 0 0 0 0 0 0 0 0 0 0 0 0 0 0 0 0 0 0 0 0 0 0 0 0 0 0 0 0 0 0 0 0 0 0
